<?xml version="1.0" encoding="utf-8"?>
<!-- Generator: Adobe Illustrator 26.3.1, SVG Export Plug-In . SVG Version: 6.00 Build 0)  -->
<svg version="1.1" id="Layer_1" xmlns="http://www.w3.org/2000/svg" xmlns:xlink="http://www.w3.org/1999/xlink" x="0px" y="0px"
	 viewBox="0 0 395.6 249.8" style="enable-background:new 0 0 395.6 249.8;" xml:space="preserve">
<style type="text/css">
	.st0{fill:#FFFFFF;stroke:#1D1D1B;stroke-width:3;stroke-linecap:round;stroke-linejoin:round;}
	.st1{fill:#FFFFFF;stroke:#1D1D1B;stroke-width:2;stroke-linecap:round;stroke-linejoin:round;}
	.st2{fill:#FFFFFF;stroke:#1D1D1B;stroke-miterlimit:10;}
	.st3{fill:#FFFFFF;stroke:#010101;stroke-linecap:round;stroke-linejoin:round;}
	.st4{fill:#FFFFFF;stroke:#1D1D1B;stroke-linecap:round;stroke-linejoin:round;}
	.st5{fill:none;stroke:#1D1D1B;stroke-width:0.5;stroke-linecap:round;stroke-linejoin:round;stroke-dasharray:2,1.5;}
	.st6{fill:none;stroke:#010101;stroke-width:0.13;stroke-linecap:round;stroke-linejoin:round;}
	.st7{fill:#FFFFFF;stroke:#1E1E1C;stroke-linecap:round;stroke-linejoin:round;}
	.st8{fill:#FFFFFF;stroke:#1D1D1B;stroke-width:0.5;stroke-linecap:round;stroke-linejoin:round;}
	.st9{fill:#FFFFFF;}
	.st10{fill:none;stroke:#1D1D1B;stroke-linecap:round;stroke-linejoin:round;}
</style>
<path class="st0" d="M27.3,7.9c0.1-0.5,0.2-1,0.2-1.4C27.4,6.9,27.3,7.4,27.3,7.9z"/>
<path class="st1" d="M394.1,230.6c0.1-5.5-0.9-8-3.5-9.7c-7.2-4.5-18.8-10.2-27.8-15.5c-62.7-37-61.9-42.8-76.3-55.7l0,0
	c-5-4.6-10.4-8.4-15.9-10.6c-13.7-16.3-29.7-42.8-34.1-52.7c-1.4-3.1-4.6-8.2-2.8-11c0.5-0.7,2.6-1.4,2.6-2.2
	c-0.1-2.3-2.9-8-4.2-10.7l-130.2-18l0,0c-16.3-17.9-35.6-34-55.2-41.8c0,0-7.7-2.3-13.3-0.5c-5.2,1.7-5.9,4.3-5.9,4.3l-0.3,3.2
	c0-0.6,0-1.2,0.1-1.8c-2.2,13.3-5.5,29.5,1.4,43.1c2.8,5.6,5.7,11.2,8.7,16.6c-2.3,0.2-4.5,0.4-6.7,0.7C15.3,70.1,1.5,74.2,1.5,81.7
	c0,0.6,0.1,1.1,0.3,1.6c0.4,2.5,2.4,6.8,3.2,8.8c2.8,11,27.3,32.7,31.8,38.5c4.2,5.5,4.1,10.2,5.3,23l0,0l0.2,4.4l9.3,2.2l7-2.9
	l-0.2-4.2l0,0c-0.1-1.8-0.3-4.9-0.7-9.8c-0.3-2.5-0.1-5.1,0.7-7.5c0.8-2.2,2.9-4.1,5-5.7c6.7,1.8,14.3,6.1,18.7,8.1
	c3.1,2.9,9.7,7.8,21.7,19.9c0.8,0.9,1.6,1.8,2.4,2.7l2.6,2.9c-4.7-4,15.7,20.9,22.7,30.3c4.9,6.6,10.4,14.5,15.7,19.5
	c11.4,11.9,25.5,17.1,96.2,24.2c49.4,5,100.8,10.7,122.4,10.5c0.6,0,5.1,0,5.7-0.1c8.1-1.1,20.8-3.6,20.5-5.7c0-0.3-0.8-0.7-2.2-1.1
	C392.4,239.8,394.1,234.6,394.1,230.6z M104.6,82.3c-1.6-0.9-3.3-1.7-5-2.5c4.2,0.4,9.4,1,15.4,1.5c0.3,0.1,0.7,0.2,1,0.3
	c4.6,7,6.1,10.2,12.4,17.1l0,0C121.1,92.4,113.1,86.9,104.6,82.3z M251.2,134.8c-27.5-3.3-64,1-82.2,3.6c-0.7-0.7-1.4-1.4-2.1-2.1
	c-6.5-6.6-13.2-13.7-20.1-20.6c-0.5-6-6.3-18.4-15.6-33c23.9,1.6,53.8,2.7,79.1,0.6c8.8-0.8,12.8,5.3,15.7,10
	C232.9,104.3,241.6,120.4,251.2,134.8L251.2,134.8z M113.1,57.6l87.7,12.9c-20,1.3-45.9,0.2-68.5-1.5c-0.8-1.4-2.4-1.7-4.3-1.9
	l-8.1-0.8C117.8,63.4,115.5,60.4,113.1,57.6L113.1,57.6z M28.4,18.4c2.9-2.2,8.3-3.5,18.3-1.7C57.4,21.9,65,27.9,72.1,33.4
	c11.8,9.2,22.5,19.7,31.7,31.5l-56.6-5.4C38.2,43.4,31.2,29.1,28.4,18.4z"/>
<path class="st2" d="M269.8,138.8c-34.7-12.5-112.2,1.4-112.2,1.4l-15.8-3.6l71,59.1l99.2-13.2C312.1,182.4,291.8,146.7,269.8,138.8
	z"/>
<path class="st2" d="M272.3,140.5c-40.1-11.9-114.6,1.4-114.6,1.4l-15.7-3.6l71,59.1l99.2-13.2C312.2,184.1,293.1,152,272.3,140.5z"
	/>
<polygon class="st3" points="101.9,44.4 232.1,62.5 233.7,75.4 113.1,57.6 "/>
<path class="st3" d="M46.7,2.7c50.7,20,99,95.9,100,113.2l-18.2-17.2c-7.2-7.8-8.1-10.9-14.3-19.9C102,61,89.3,46.7,72.2,33.4
	C65,27.9,57.4,21.9,46.7,16.7C46.4,12.1,46.4,7.4,46.7,2.7z"/>
<path class="st4" d="M51.5,154.4c0,0,0-1.7-0.4-8.2c-0.3-5-1.2-12.4,1.2-15.7c5.8-8,26.7,5.3,32.3,7.1c0,0-14.7-12.2-15.9-12.9
	c-8.3-4.3-50.5-29.6-63.4-33c2.8,10.7,27.3,31.7,31.8,37.4c4.5,5.6,4.4,9.3,5.9,23.3C41.7,152.3,51.1,154.3,51.5,154.4z"/>
<path class="st2" d="M205.6,173.2c-34-15.3-62.7-67.7-100.3-85.5C93.1,82,79.6,72.2,65.2,69.2c-16.9-3.4-58,0-63.4,12.7
	C1.1,83.6,4,89.6,5,92.1c1.6,4.1,29.1,16.8,44.2,24.1c12.6,6.2,24.4,13.9,35.1,23.1c7.8,6.7,15.1,13.9,21.9,21.6
	c4,4.6,10.2,11.5,13.4,15.8c1.9,2.6,5.4,5.2,7.3,7.8c1.3,1.9,5.9,4.9,7.9,6C145.7,196.9,230,186.5,205.6,173.2z"/>
<path class="st2" d="M203.1,161.8c-15.4-6.9-24-13.2-36.3-25.6c-18.8-19-38.9-41.8-62.2-53.9C92.2,76,78.9,71.4,65.2,68.7
	c-16.9-3.4-63.7-0.8-63.7,13c0.2,2.3,1.4,4.4,3.3,5.6c4.1,3.1,20.7,10.8,31,16s65.1,28.6,92.8,84c2.4,7,113,63.1,211.6,10.4
	c2.4-1.3-25.7-6-27.4-6.4c-12.1-3.4-41.6-11.7-55.4-14.5C249.3,175.1,214,166.7,203.1,161.8z"/>
<path class="st2" d="M201.4,162.9c-24.5-11-39.1-26.6-54.9-43.3c-19.4-20.4-45.9-43.8-81.1-51C48.5,65.2,8.7,67,8.7,80.7
	c0.1,2.3,1.4,4.4,3.3,5.6c4.1,3.1,13.1,8.1,31,16c0,0,65.1,28.6,92.8,84c2.2,6.6,72.6,63.3,211.3,10.8
	C354.8,194.3,224.4,173.2,201.4,162.9z"/>
<path class="st5" d="M205.6,165.9c-24.4-8.4-44.7-28.2-60.4-44.2C124.8,100.3,97,76.8,59.8,69.4c-18.1-3.6-58.7,1.8-43.6,16.5
	c24.5,17.4,84.8,27.9,125.6,99.7c2.4,6.9,121.2,8.7,133.9,0.3C280.2,182.9,256.6,179.3,205.6,165.9L205.6,165.9z"/>
<path class="st4" d="M132.7,69.8l3.4,13.1l-80.8-7.6l-10.7-16l83.5,7.9C130.2,67.4,132.1,67.7,132.7,69.8z"/>
<path class="st3" d="M27.5,6.5c0,0,0.7-2.6,5.9-4.3C39,0.4,46.7,2.7,46.7,2.7c0.5,4.7,0.5,9.4,0.1,14.1c-25-4.5-21.4,10.4-21.4,10.4
	L27.5,6.5z"/>
<path class="st6" d="M27.1,11.3c0.7,0.4,1.5,0.9,2.1,1.4c-0.4-0.7-0.8-1.5-1.1-2.3c0.7,0.5,1.3,1.1,1.9,1.7
	c-0.3-0.8-0.6-1.6-0.9-2.4"/>
<path class="st6" d="M29.3,9.7c0.6,0.6,1.2,1.2,1.8,1.8c-0.3-0.8-0.5-1.6-0.7-2.4c0.6,0.6,1.1,1.3,1.6,2c-0.2-0.8-0.3-1.6-0.5-2.5"
	/>
<path class="st6" d="M31.6,8.5c0.5,0.7,1,1.4,1.5,2.1c-0.1-0.8-0.2-1.7-0.3-2.5c0.5,0.7,0.9,1.4,1.3,2.2c0-0.9-0.1-1.7-0.1-2.6"/>
<path class="st6" d="M34.1,7.7c0.4,0.8,0.8,1.5,1.2,2.3c0-0.8,0-1.7,0.1-2.5c0.4,0.8,0.7,1.6,1,2.3c0.1-0.8,0.2-1.7,0.3-2.5"/>
<path class="st6" d="M36.7,7.2C37,8,37.3,8.8,37.5,9.7C37.7,8.8,37.8,8,38,7.2c0.2,0.8,0.5,1.6,0.7,2.4C38.8,8.8,39,8,39.2,7.2"/>
<path class="st6" d="M39.3,7.2c0.2,0.8,0.4,1.7,0.5,2.5c0.2-0.8,0.5-1.6,0.7-2.4c0.1,0.8,0.2,1.7,0.3,2.5c0.3-0.8,0.6-1.6,0.9-2.4"
	/>
<path class="st6" d="M41.9,7.4c0.1,0.8,0.2,1.7,0.2,2.5c0.3-0.8,0.7-1.5,1-2.3c0,0.8,0.1,1.7,0.1,2.5c0.4-0.8,0.8-1.5,1.2-2.3"/>
<path class="st6" d="M44.4,7.9c0,0.8,0,1.7-0.1,2.6c0.4-0.7,0.8-1.5,1.2-2.2c0,0.8-0.1,1.7-0.2,2.5c0.4-0.7,0.9-1.4,1.4-2.2"/>
<path class="st7" d="M27.5,6.5c-5.1,23.3,49.2,97.4,76.5,152c-15.2-15.2-21.8-19.1-23.6-22C60.9,109.4,43.6,80.8,28.6,51
	C21.6,36.9,25.4,20.1,27.5,6.5z"/>
<path class="st3" d="M120.3,174.5c6,11.8,13.2,22.9,21.6,33.1c13.6,16.3,20,21.9,101.4,30.2c49.4,5,100.8,10.7,122.4,10.5
	c0.6,0,5.1,0,5.7-0.1c8.1-1.1,20.8-3.6,20.5-5.7c-0.7-4.1-156.6-29.2-156.6-29.2l-94.4-21L120.3,174.5z"/>
<path class="st8" d="M281.9,150.2c0.9,0.8,2.2,1,3.3,0.5l1.3-1c14.4,12.9,13.6,18.7,76.3,55.7c9.1,5.4,20.6,11,27.8,15.5
	c2.6,1.6,3.6,4.2,3.5,9.7c-0.1,4.5-2.2,10.5-5.6,11.2c0,0-3.9,1.9-17.8,3.8c-0.7,0.1-5.4,0.1-6.2,0.1c-28.7-0.5-75.8-6.4-148-13.9
	c-40.4-4.5-49.6-8.7-63.1-13.9c-7-2.6-15.1-14.5-22.1-23.9s-27.4-34.3-22.7-30.3c25.6,1.9,71.5,5.2,97.1,6.3
	c21.4,0.9,36.4-0.5,52.6-6.3c6-2.3,8.5-4.3,7.5-8.9c-0.2-0.8-0.6-1.6-1.2-2.2C250,136,235.9,109.2,225.8,93c-3-4.7-6.9-10.8-15.7-10
	c-51,4.4-121.4-4.5-121.4-4.5L81,64.1c0,0,133.2,16.9,151.1-1.6c1.4,2.6,4.1,8.4,4.2,10.7c0,0.8-2.2,1.5-2.6,2.2
	c-1.9,2.8,1.4,7.9,2.8,11C242.3,99.3,267.4,140.1,281.9,150.2z"/>
<path class="st4" d="M117.4,81.7"/>
<path class="st4" d="M124.5,74.6"/>
<path class="st4" d="M117.4,67.5"/>
<path class="st4" d="M115.3,74.2"/>
<path class="st9" d="M200.7,70.1l-13.5-2l-6.8-0.8l-9-1.2c-2.8-0.5-5.6-0.9-8.4-1.4c-5.5-0.9-10.9-1.7-16.2-2.5l-13.5-1.8
	c-2.5-0.4-5-0.8-7.5-1.2c-1.8-0.3-3.6-0.6-5.4-0.8l-4.2-0.6c-0.8-0.1-1.7-0.2-2.5-0.3c-0.1,0-0.2-0.1-0.2-0.1
	c-0.1-0.1-0.1-0.1-0.2-0.2c-0.1-0.1-0.1-0.2-0.2-0.2c-1.1-1.3-2.1-2.6-3.2-3.8c-0.6-0.8-1.3-1.6-1.9-2.4l-2.9-3.3l-2-2.2
	c2.2,0.3,4.4,0.6,6.7,0.8c2.3,0.3,4.5,0.6,6.8,0.9c2.1,0.3,4.3,0.6,6.4,0.9c1.4,0.2,2.7,0.4,4.1,0.6c2,0.3,4.1,0.6,6.1,0.9
	c2,0.3,4.1,0.6,6.1,0.8c1.7,0.2,3.4,0.5,5.1,0.7c3,0.4,2.9,0.4,5.1,0.7c3.3,0.4,3.2,0.4,5,0.7c1.2,0.2,2.1,0.3,3.7,0.5
	c1.2,0.2,2.1,0.3,2.5,0.3c3.1,0.4,6.2,0.9,9.9,1.4c1.9,0.3,4.7,0.7,8.2,1.1c1.9,0.3,3.8,0.5,5.8,0.8c0.5,0.1,1,0.1,1.5,0.2
	c2.2,0.3,4.5,0.6,6.7,0.9l5,0.7l8.4,1.1c1.2,0.2,2.4,0.4,3.6,0.5c3.5,0.5,7,1,10.5,1.5l4.8,0.7l1.9,0.3l4,0.6v0.3l-0.4,0.3l-0.5,0.3
	l-0.6,0.3l-0.7,0.3l-0.7,0.4l-0.5,0.1l-0.4,0.2l-0.6,0.2l-0.7,0.3l-0.6,0.2l-0.6,0.2l-0.6,0.2l-0.8,0.2L222,67l-0.6,0.2l-0.8,0.2
	l-1,0.2l-0.4,0.1l-0.6,0.1l-0.5,0.1l-0.5,0.1l-0.4,0.1l-0.4,0.1h-0.3l-0.7,0.1l-0.6,0.1l-0.6,0.1l-0.6,0.1l-0.9,0.1l-0.7,0.1
	l-0.7,0.1l-0.8,0.1l-1,0.1l-0.9,0.1h-0.4l-1,0.1l-0.9,0.1l-0.9,0.1l-0.7,0.1l-0.8,0.1l-0.7,0.1l-0.9,0.1l-1,0.1h-0.5
	C201,70.1,200.8,70.1,200.7,70.1z"/>
<path class="st9" d="M200.7,61.8"/>
<path class="st0" d="M42.9,155.7"/>
<line class="st10" x1="58.4" y1="152.4" x2="51.5" y2="154.4"/>
<path class="st4" d="M56,157.5"/>
</svg>
