<svg id="Layer_1" data-name="Layer 1" xmlns="http://www.w3.org/2000/svg" viewBox="0 0 400.43 274.92"><defs><style>.cls-1,.cls-7{fill:#fff;}.cls-1,.cls-10,.cls-2,.cls-7,.cls-8,.cls-9{stroke:#231f20;}.cls-1,.cls-10,.cls-11,.cls-12,.cls-3,.cls-8,.cls-9{stroke-linecap:round;stroke-linejoin:round;}.cls-1{stroke-width:3px;}.cls-2,.cls-3,.cls-6,.cls-8{fill:#ffffff;}.cls-2,.cls-6,.cls-7{stroke-miterlimit:10;}.cls-11,.cls-12,.cls-3,.cls-6{stroke:#19181c;}.cls-4{opacity:0.85;}.cls-5{fill:#19181c;}.cls-10,.cls-11,.cls-12,.cls-9{fill:none;}.cls-10,.cls-9{stroke-width:0.5px;}.cls-10{stroke-dasharray:2.03 1.52;}.cls-11,.cls-12{stroke-width:0.25px;}.cls-12{stroke-dasharray:2 1.5;}</style></defs><path class="cls-1" d="M398.17,214v2.2A8.09,8.09,0,0,0,398.17,214Z"/><path class="cls-1" d="M398.07,217c.8-35,.5-51.4.4-55.2v-.2c.7-3.7.6-9.4-.3-11.4h0c-1.7-5.7-8.9-11.5-18.4-16.1-3.9-1.9-8.1-3.6-12.6-5.3-.6-1.1-5.2-9.2-12.7-13.6a12,12,0,0,0-2.9-2.6s-56.3-24-130.7-102.2c-4.9-4.8-7.5-5.1-7.5-5.1s-3-2.9-5.3-3.8c-16.3,8-50.6,38.7-80.9,68.8-10.1-3.5-20.9-7.2-32.6-11.4,0,0-49.3-18.3-82.8,7.8-6.5,5.1-9.2,10.5-9.3,15.7v-.1a27.63,27.63,0,0,0-.8,8.6c-.2,3-.2,6.5-.1,10.8.2,19.5-.2,95.8,1.3,117l.2,5.5c.2.9-.8,2.9,9.1,8.2a165.8,165.8,0,0,0,35,11.8c17.4-7,35.5-15.4,50.7-22.8,4.3,7.7,6.3,16,8,21h0c.3.8.5,1.5.8,2.1l2.4,6.4c.2.4,19.8,4.5,19.8,4.5s5.8,4.7,11.2,2l2.2.4s5.4,4.7,10.6,1.8l.7.1,1.1.2s5.5,4.7,10.6,1.7l1.9.4s5.5,4.5,10.6,1.4l2.2.2s5.6,4.3,10.7,1.1l1.8.3s5.5,4.5,10.6,1.5l1.9.3s5.6,4.4,10.7,1.2l2.2.2s5.8,4.2,10.7.8l.7.1,1.2.1s5.8,4.1,10.7.6l2,.2s5.9,4,10.7.4h2.2s5.7,4.2,10.4.5l2,.1s5.9,3.9,10.8.4l2,.1s6,3.9,10.7.3h2.2s6.1,3.7,10.7-.1h1.9s6.2,3.1,10.7-.8c5.4-.3,7.8-.2,12.5-.8,10.4-1.4,29.1-4.8,50.1-21.4,6.4-5.1,19.3-17.5,18.4-26.8v-5.3a2.77,2.77,0,0,1-.1.9C398.17,217.1,398.17,217,398.07,217Z"/><path class="cls-2" d="M47.17,244.1c41.8-16.9,88-41.8,88-41.8l-91.8-12.4C43.27,189.9,26.37,239.4,47.17,244.1Z"/><path class="cls-3" d="M398.17,214c.9,9.4-9.6,21.6-16,26.8-21,16.7-38.8,21.6-49.2,23-35,4.8-89.9.5-122.8-2.9-33.2-3.4-95-11.6-104.4-18.8l3.2,8.6c.2.4,19.8,4.5,19.8,4.5s5.8,4.7,11.2,2l2.2.4s5.4,4.7,10.6,1.8l.7.1,1.1.2s5.4,4.7,10.6,1.7l1.9.4s5.5,4.5,10.6,1.4l2.2.2s5.6,4.3,10.7,1.1l1.8.3s5.5,4.5,10.6,1.5l1.9.3s5.6,4.4,10.7,1.2l2.2.2s5.8,4.2,10.7.8l.7.1,1.2.1s5.8,4.1,10.7.6l2,.2s5.9,4,10.7.4H256s5.7,4.2,10.4.5l2,.1s5.9,3.9,10.8.4l2,.1s6,3.9,10.7.3h2.2s6.1,3.7,10.7-.1h1.9s6.2,3.1,10.7-.8h0c5.4-.3,7.8-.2,12.5-.8,10.4-1.4,29.1-4.8,50.1-21.4,6.4-5.1,19.3-17.5,18.4-26.8Z"/><path class="cls-3" d="M48.27,238.2c-13.8-3.3-41.1-6.9-45.3-20.5l-.3-4.3L3,224.1c.2.9-.8,2.9,9.1,8.2a165.8,165.8,0,0,0,35,11.8Z"/><path class="cls-2" d="M47.77,240.3c48-20.5,91.8-42.9,91.8-42.9L43.77,183s-10.7,38.6-3,52.5C42.27,238.2,44.87,239.5,47.77,240.3Z"/><path class="cls-3" d="M30.17,66.5C.67,78,1.27,82,1.47,101.6c.3,19.9-.3,98.9,1.4,118.1,2.7,8.6,31,17.4,44.9,20.5,1.2-2.4,2.8-40.4,25-37.3,30.1,4,31,42.5,35.5,43.6,37.3,9.2,68.7,13.6,101.9,17.1,32.8,3.4,87.5,7.7,122.4,2.9,10.3-1.4,28.1-6.4,49-23,6.4-5.1,17.4-17.2,16.5-26.6.9-40.3.3-56,.3-56s-7.4,2.4-10.6-10.9c-14.2-17.6-28-9.6-28-9.6S179,101.9,167.07,99.3C121.07,83.7,110.87,64.1,30.17,66.5Z"/><g class="cls-4"><path class="cls-5" d="M339.37,254v-.2C339.27,253.8,339.27,253.9,339.37,254Z"/><path class="cls-5" d="M339.07,252.6v-.2c0-.4-.1-.8-.1-1.2v-.6c0-.4-.1-1.5-.1-.9,0,1,.1,1.6.1,2.4s.1,1.4.1,2.1V254A6.53,6.53,0,0,0,339.07,252.6Z"/><path d="M339.17,250.2c0-1.2-.1-2.3-.1-3.4v-1.2h0v-2h0v-1.4c0,.1.1.4,0,.6V241c-.1-3.6-.2-6.9-.3-10.7,0-2-.1-4-.1-5.9,0-3.8-.2-7.3-.2-11.1,0-1.5-.1-4.2-.1-5.6-.1-1.9-.4-.9-.4-.8-.2,1.2,0,2.1-.1,4.5,0-1.6.2,1.2.1,2.7-.1,2.2.1,5.4.1,8.1a17,17,0,0,0,.1,2.2c0,4.2.3,8.2.4,12.7a30.48,30.48,0,0,0,.2,3.2v2.1c0,.9.1,1.7.1,2.5,0-.9-.1-1.5-.1-2.4,0-.6.1.4.1.9v.6a4.87,4.87,0,0,0,.1,1.2v.2c0,.6.1,1,.1,1.4v1.5c.1.8.1,1.6.2,2.4h0v-1.4h0V251A2.81,2.81,0,0,1,339.17,250.2Z"/></g><path class="cls-6" d="M308.77,102.8s63.5,7.9,54.7,33.1C359.87,146.3,299,122,299,122Z"/><path class="cls-7" d="M11.77,74.7c33.5-26.1,82.8-7.8,82.8-7.8,40.5,14.5,69.4,23.8,100.3,33.6,28.3,9,58.2,13.6,87.8,15.2,0,0,61.2,9.4,97.1,26.5,13.2,6.3,21.9,15.1,17.8,22.4-5.2,9.5-23.4,24.6-49.1,33.1-18.9,6.2-36.2,4.6-54.9,2.9-27.1-3.8-39.7-10.6-94-25.5-22.4-6.6-67.3-24.6-124.6-41-9.9-2.8-48.3-16-60.5-24.3S-4.13,87,11.77,74.7Z"/><path class="cls-2" d="M11.77,66.7c33.5-26.1,82.8-7.8,82.8-7.8,40.5,14.5,69.4,23.8,100.3,33.6,28.3,9,58.2,13.6,87.8,15.2,0,0,61.2,9.4,97.1,26.5,13.2,6.3,21.9,15.1,17.8,22.4-5.2,9.5-23.4,24.6-49.1,33.1-18.9,6.2-36.2,4.6-54.9,2.9-22.6-8.1-39.7-10.6-94-25.5-22.4-6.6-67.3-24.6-124.6-41-9.9-2.8-48.3-16-60.5-24.3S-4.13,79,11.77,66.7Z"/><path class="cls-2" d="M25.57,70.6c30.8-21.1,76.3-5.1,76.3-5.1,37.3,12.8,64.1,20.9,92.4,29.6,26.1,8,53.6,12.2,80.9,14.1,0,0,56.5,8.9,89.6,23.6,12.2,5.4,20.2,12.9,16.5,18.9-4.8,7.8-21.5,20-45.2,26.6-17.4,4.8-33.3,3.2-50.6,1.5-20.9-7.1-36.6-9.5-86.6-22.8-20.7-5.8-62-21.6-114.9-36.1-9.1-2.5-44.6-14.1-55.8-21.2S11.07,80.5,25.57,70.6Z"/><path class="cls-2" d="M348.47,189.5c-18.9,6.2-36.2,4.6-54.9,2.9-22.6-8.1-39.7-10.6-94-25.5-22.4-6.6-67.3-24.6-124.6-41-9.9-2.8-48.3-16-60.5-24.3-5.7-3.9-12-10.4-12.2-19.5-3.4,13.6,3.9,21.9,12.2,27.5,12.1,8.2,50.6,21.4,60.5,24.3,57.3,16.4,102.1,34.4,124.6,41,54.2,14.8,66.8,21.7,94,25.5,18.7,1.7,36,3.3,54.9-2.9,25.7-8.4,44.2-23.4,49.1-33.1,1.6-2.5,1.9-11.6.6-14.3C398.47,161,374.17,181.1,348.47,189.5Z"/><path class="cls-8" d="M71,132.7c10.5-19,106.2-116.1,137.1-131.2,2.3.9,5.3,3.8,5.3,3.8s2.6.3,7.5,5.1c74.4,78.2,130.7,102.2,130.7,102.2a10.24,10.24,0,0,1,2.9,2.6c8.1,4.7,12.8,13.7,12.8,13.7l-3.9-1.4s-7.5-16.5-27.3-7.7c-23.5,10.1-37.9,56.1-41.5,69.2-.5,1.8-2.6,10.8-2.7,11.3C211.57,190,161,166.8,77.57,134.7,74.67,133.7,71,132.7,71,132.7Z"/><path class="cls-9" d="M288.07,198.3l.3-.9"/><path class="cls-10" d="M288.87,195.9c5.2-16,8.9-25.6,13.1-37,9.8-26.2,31.4-50.8,50.9-44.3"/><path class="cls-9" d="M353.57,114.8l.9.4"/><g class="cls-4"><path class="cls-5" d="M342,112.7c-.4.1-.8.1-1.1.2l.6-.1A4.33,4.33,0,0,1,342,112.7Z"/><path class="cls-5" d="M337.87,113.6l1-.3C338.57,113.4,338.27,113.5,337.87,113.6Z"/><path class="cls-5" d="M339.47,113.2h0l-.6.2Z"/><path class="cls-5" d="M339.47,113.2l.4-.1Z"/><path class="cls-5" d="M339,113.5a.75.75,0,0,0-.5.1,24.13,24.13,0,0,0-2.5.8c-.4.2-1,.4-1.3.6-.9.4-2.9,1.7-1.7,1a20.13,20.13,0,0,1,2.5-1.3,10.64,10.64,0,0,1,2.5-.9c1.5-.4,3-.8,4.5-1.1.5-.1.9-.1,1.3-.2-.5.1-1.1.1-1.7.2C341,113,340,113.2,339,113.5Z"/><path class="cls-5" d="M350.57,112.5H350a13.13,13.13,0,0,0-2.8-.1h.5a17.33,17.33,0,0,1,3.2.3C350.77,112.6,350.67,112.5,350.57,112.5Z"/><path class="cls-5" d="M351.57,112.6l-.6-.1h0l.6.1Z"/><path d="M334,115.3a45,45,0,0,0-6.5,4.2,2.18,2.18,0,0,1-.5.4l-.5.3-.8.7-.3.2h0l.3-.2-.3.2-.5.4-.8.7a5,5,0,0,1,.8-.7l.5-.4.1-.1-1.9,1.6-.4.4a11.3,11.3,0,0,0-1.1,1.1l-.3.3h.1l-.1.1-1.3,1.3-.8.9-.3.3-.5.5.7-.6a9.43,9.43,0,0,1,1-1,9.43,9.43,0,0,0-1,1l-.7.6a18.48,18.48,0,0,1-1.4,1.4,9.27,9.27,0,0,1,1.4-1.4l.5-.5.3-.3.8-.9-2.6,2.6a60.64,60.64,0,0,0-7.3,9.4,109,109,0,0,0-5.8,10.6c-2,4.1-3.7,8.1-5.3,12.1-3.2,8-5.5,15.4-8.3,23.6l-4,12c-1.4,4-.4,2.1-.3,1.9,1.1-2.4,1.6-4.4,3.4-9.5-1.2,3.4.7-2.6,1.9-5.8,1.8-4.7,3.8-11.5,5.9-17.3.5-1.4,1.1-3,1.8-4.7,1.8-4.4,3.6-8.6,5.6-12.8a84.57,84.57,0,0,1,7.1-12.4,61.66,61.66,0,0,1,4.4-5.7c1.1-1.2,2.3-2.4,3.2-3.4,1.5-1.5,2.7-2.8,4-3.9-1.4,1.3-2.4,2.3-3.9,3.8-1,1,.6-.8,1.3-1.4.3-.3.8-.7,1.1-1l1.9-1.8a2.19,2.19,0,0,1,.5-.3,27.87,27.87,0,0,1,2.4-2c.5-.4,1-.7,1.4-1l.9-.6.6-.4a.37.37,0,0,1-.3.1c.3-.2.7-.4,1-.6-.3.2-.7.4-1,.6.1,0,.2-.1.3-.1a44.78,44.78,0,0,1,4.7-2.8h0c-1,.5-1.9,1-2.8,1.5.4-.2.4-.2-.1.1l-.4.2a20.13,20.13,0,0,1,2.5-1.4l.5-.3a.37.37,0,0,1,.3-.1l.6-.3-1,.4Z"/><path class="cls-5" d="M325,121.6l.4-.3a19.2,19.2,0,0,0-1.5,1.4A5.63,5.63,0,0,1,325,121.6Z"/></g><g class="cls-4"><path class="cls-5" d="M199.87,13l-1.5,1.1.8-.5C199.47,13.3,199.67,13.2,199.87,13Z"/><path class="cls-5" d="M197,15.2l-.3.2-.2.2Z"/><path class="cls-5" d="M194.37,17.1l1.3-1Z"/><path class="cls-5" d="M196.47,15.6c-.2.1-.3.1,0,0h0l-.8.6Z"/><path class="cls-5" d="M196.47,15.6l.5-.3Z"/><path class="cls-5" d="M195.87,16.2c-.3.2-.2.1-.8.5l-3.4,2.7c-.5.4-1.4,1-1.9,1.4-1.2,1-4.2,3.5-2.4,2.1,2.7-2.2,4.5-3.6,7-5.6,2-1.6,3.9-3,6.1-4.6l1.7-1.2-2.3,1.6A44,44,0,0,1,195.87,16.2Z"/><path class="cls-5" d="M211.87,5.9c-.3.1-.9.4-.9.4a31.13,31.13,0,0,0-4,2.2l.6-.3c.8-.4.8-.5.1-.1a40.86,40.86,0,0,1,4.7-2.3A.44.44,0,0,0,211.87,5.9Z"/><path class="cls-5" d="M213.37,5.3a6.89,6.89,0,0,0-1,.4h0A3,3,0,0,1,213.37,5.3Z"/><path d="M188.87,21.5c-3.4,2.7-6.6,5.4-9.6,8a4.35,4.35,0,0,1-.7.6l-.7.6-1.3,1.2-.5.4h0l.5-.4-.5.4-.7.6-1.3,1.1,1.3-1.1.8-.7.2-.2-3,2.6-.6.6a23.78,23.78,0,0,1-1.9,1.7l-.5.5.1-.1-.2.2-2.3,2-1.5,1.4-.5.4-.8.8,1.1-1c.5-.4,1.1-1.1,1.7-1.6-.6.5-1.2,1.1-1.7,1.6l-1.1,1a24.05,24.05,0,0,1-2.4,2.1q1.35-1.2,2.4-2.1l.8-.8.5-.4,1.4-1.3-4.5,4c-9.7,8.8-18.5,17.2-28.3,26.7-5.3,5.2-10.3,10.2-15.2,15.1-9.8,9.9-18.5,19.1-28,29.4-3.6,4-10.2,11.5-13.1,15.9a12,12,0,0,0-1.6,3.2,1.06,1.06,0,0,0,.1.8l.2.1-.2-.2v-.4c.1-.2.1-.4.2-.6a22.61,22.61,0,0,1,1.6-2.6c.6-.9,1.2-1.7,2-2.7,1.5-1.9,3.4-4.3,6.3-7.6-3.9,4.5,2.7-3.4,6.6-7.5,5.6-5.9,13.4-14.4,20.4-21.6l5.7-5.8c10.9-11,21.1-21.1,33-32.3l8.6-8.1c2-1.8,4.1-3.7,5.7-5.1l6.8-6.1-6.6,5.9c-1.7,1.6,1.1-1.1,2.3-2.2.5-.4,1.3-1.1,1.8-1.5l3.2-2.9a6,6,0,0,0,.7-.6c1.6-1.4,2.8-2.5,3.8-3.4.8-.6,1.5-1.2,2.2-1.8l1.3-1.1.9-.7c-.1.1-.3.2-.4.3l1.5-1.2-1.5,1.2a1.38,1.38,0,0,0,.4-.3c2.1-1.8,4.5-3.8,6.8-5.7h0l-4.1,3.2c.6-.5.5-.4-.1.2l-.6.4c1.2-1,2.4-2,3.5-2.9l.8-.6a2.19,2.19,0,0,1,.5-.3l.8-.6C190.67,20.1,188.87,21.5,188.87,21.5Z"/><path class="cls-5" d="M175.27,33l.6-.6-2.5,2.2C173.77,34.3,174.57,33.6,175.27,33Z"/></g><path class="cls-11" d="M76.17,134.2c-.2-.1-.3-.4-.1-.9"/><path class="cls-12" d="M76.67,131.9c9.2-16.5,105.2-115,133.9-126.6"/><path class="cls-11" d="M211.27,5.1l.9-.3"/></svg>