<?xml version="1.0" encoding="UTF-8" standalone="no"?>
<svg
   width="24"
   height="24"
   viewBox="0 0 24 24"
   version="1.1"
   id="svg2425"
   sodipodi:docname="initial.svg"
   inkscape:version="1.2.2 (732a01da63, 2022-12-09)"
   xmlns:inkscape="http://www.inkscape.org/namespaces/inkscape"
   xmlns:sodipodi="http://sodipodi.sourceforge.net/DTD/sodipodi-0.dtd"
   xmlns="http://www.w3.org/2000/svg"
   xmlns:svg="http://www.w3.org/2000/svg">
  <defs
     id="defs2429" />
  <sodipodi:namedview
     id="namedview2427"
     pagecolor="#ffffff"
     bordercolor="#000000"
     borderopacity="0.25"
     inkscape:showpageshadow="2"
     inkscape:pageopacity="0.0"
     inkscape:pagecheckerboard="0"
     inkscape:deskcolor="#d1d1d1"
     showgrid="false"
     inkscape:zoom="9.8333333"
     inkscape:cx="-1.9322034"
     inkscape:cy="12"
     inkscape:window-width="1366"
     inkscape:window-height="705"
     inkscape:window-x="-8"
     inkscape:window-y="-8"
     inkscape:window-maximized="1"
     inkscape:current-layer="svg2425" />
  <path
     d="M19 0h-14c-2.761 0-5 2.239-5 5v14c0 2.761 2.239 5 5 5h14c2.762 0 5-2.239 5-5v-14c0-2.761-2.238-5-5-5zm-11 19h-3v-11h3v11zm-1.5-12.268c-.966 0-1.75-.79-1.75-1.764s.784-1.764 1.75-1.764 1.75.79 1.75 1.764-.783 1.764-1.75 1.764zm13.5 12.268h-3v-5.604c0-3.368-4-3.113-4 0v5.604h-3v-11h3v1.765c1.396-2.586 7-2.777 7 2.476v6.759z"
     id="path2423" />
  <rect
     style="fill:#000000;fill-rule:evenodd;fill-opacity:1"
     id="rect2963"
     width="19.423729"
     height="16.983051"
     x="1.7288135"
     y="2.5423729" />
  <path
     style="fill:#f6f6f2;fill-opacity:1;stroke-width:0.0517253"
     d="m 8.172985,22.167188 v -0.17436 l 0.417457,-0.03644 c 0.818229,-0.07137 1.239016,-0.305854 1.399488,-0.779849 0.05714,-0.16879 0.07225,-1.870729 0.0841,-9.477451 L 10.08849,2.4273701 8.704015,2.4276725 C 7.2389106,2.4279999 6.6466053,2.4837769 5.8990146,2.6918147 4.0723383,3.200143 2.8793665,4.5607923 2.352458,6.7368678 2.2838687,7.0201492 2.217649,7.2620328 2.2052968,7.2743792 c -0.012351,0.012351 -0.09016,0.014964 -0.1729238,0.00589 L 1.8818959,7.2636944 2.3360804,4.6774401 C 2.58588,3.2550021 2.7910147,2.0853684 2.7919324,2.0782527 c 0.00101,-0.00711 3.964456,-0.012896 8.8078616,-0.012896 l 8.806189,4.53e-5 0.43188,2.4956866 c 0.237534,1.3726281 0.443723,2.548062 0.4582,2.6120672 0.02344,0.1035446 0.0063,0.1163836 -0.154751,0.1163836 h -0.181071 l -0.09003,-0.37501 C 20.389257,4.9110977 19.557795,3.7290074 18.119559,3.0038568 17.274485,2.5777721 16.327302,2.4273297 14.489756,2.4273297 h -1.351144 v 9.2235353 c 0,10.238442 -0.02238,9.582126 0.338943,9.933053 0.218782,0.212478 0.571432,0.327418 1.148156,0.374214 l 0.426729,0.03463 v 0.17436 0.174354 H 11.612725 8.173005 Z M 8.048473,19.706005 C 6.391515,18.862398 5.1390891,17.616589 4.2939597,15.971352 3.5531116,14.529111 3.2871298,13.386876 3.2900825,11.660319 3.2916622,10.74241 3.3073734,10.552353 3.429401,9.9740009 3.505056,9.6155011 3.6383959,9.1150589 3.7257195,8.8619134 3.9576494,8.1895657 4.5005793,7.1288093 4.9011533,6.5654002 5.4211641,5.8340105 6.3153516,4.9636297 7.0350398,4.4883298 7.8521288,3.9487115 8.009082,3.8756946 8.351971,3.8756946 H 8.638518 V 4.096911 c 0,0.2063855 -0.02706,0.2488532 -0.404027,0.6336299 -1.028459,1.049826 -1.6842052,2.5164227 -2.0345823,4.550422 -0.152696,0.8864161 -0.1889438,2.8081171 -0.073544,3.8987781 0.16676,1.576029 0.5116842,2.841986 1.0869369,3.989295 0.3187796,0.635791 0.5894575,1.024685 1.0452704,1.501779 l 0.379943,0.397682 v 0.446847 c 0,0.245763 -0.01956,0.446847 -0.04344,0.446847 -0.02388,0 -0.269862,-0.115277 -0.546612,-0.256186 z m 6.486706,-0.09438 V 19.31278 l 0.305718,-0.269105 c 0.71239,-0.627074 1.435464,-1.885719 1.79012,-3.116038 0.68238,-2.367247 0.678192,-5.418879 -0.01077,-7.8363482 C 16.258393,6.821592 15.674151,5.7374311 14.901539,4.9019524 L 14.535172,4.5057729 V 4.1907316 3.8756961 h 0.260342 c 0.31039,0 0.529832,0.1031281 1.291407,0.6069208 1.817302,1.202163 3.166461,3.1956035 3.620364,5.3492579 0.242266,1.1494972 0.265816,2.6514012 0.0576,3.6744222 -0.283801,1.394418 -0.963697,2.852812 -1.816079,3.895502 -0.44284,0.541721 -1.262303,1.304383 -1.785689,1.661922 -0.499293,0.341079 -1.425603,0.846747 -1.551124,0.846747 -0.05908,0 -0.07683,-0.06901 -0.07683,-0.298845 z"
     id="path300" />
</svg>
