<?xml version="1.0" encoding="utf-8"?>
<!-- Generator: Adobe Illustrator 26.3.1, SVG Export Plug-In . SVG Version: 6.00 Build 0)  -->
<svg version="1.1" id="Layer_1" xmlns="http://www.w3.org/2000/svg" xmlns:xlink="http://www.w3.org/1999/xlink" x="0px" y="0px"
	 viewBox="0 0 200 70" style="enable-background:new 0 0 200 70;" xml:space="preserve">
<style type="text/css">
	.st0{fill:#F2BE8C;}
	.st1{fill:#EB69EC;}
	.st2{fill:#83E2C9;}
	.st3{fill:#FFFFFF;stroke:#1D1D1B;stroke-linecap:round;stroke-linejoin:round;}
	.st4{fill:#FFFFFF;}
	.st5{fill:#FFFFFF;stroke:#1D1D1B;stroke-width:3;stroke-linecap:round;stroke-linejoin:round;}
</style>
<g>
	<rect y="24" class="st0" width="200" height="8"/>
</g>
<g>
	<rect y="32" class="st1" width="200" height="8"/>
</g>
<g>
	<rect y="40" class="st2" width="200" height="8"/>
</g>
<g>
	<rect class="st0" width="200" height="8"/>
</g>
<g>
	<rect y="8" class="st1" width="200" height="8"/>
</g>
<g>
	<rect y="16" class="st2" width="200" height="8"/>
</g>
<g>
	<rect y="48" class="st0" width="200" height="8"/>
</g>
<g>
	<rect y="56" class="st1" width="200" height="8"/>
</g>
<g>
	<rect y="64" class="st2" width="200" height="8"/>
</g>
<image style="overflow:visible;enable-background:new    ;" width="644" height="404" xlink:href="../../../../../../../../../Users/aa/Desktop/E5C55EF5FD148CE4.png"  transform="matrix(4.503106e-02 0 0 4.503106e-02 3 27)">
</image>
<image style="overflow:visible;enable-background:new    ;" width="621" height="401" xlink:href="../../../../../../../../../Users/aa/Desktop/E5C55EF5FD148CE3.png"  transform="matrix(4.488778e-02 0 0 4.488778e-02 88 27)">
</image>
<image style="overflow:visible;enable-background:new    ;" width="591" height="394" xlink:href="../../../../../../../../../Users/aa/Desktop/CF37F1DC3DD36F5F.png"  transform="matrix(4.509830e-02 0 0 4.509830e-02 61.9222 27.1156)">
</image>
<image style="overflow:visible;enable-background:new    ;" width="641" height="407" xlink:href="../../../../../../../../../Users/aa/Desktop/E5C55EF5FD148CE2.png"  transform="matrix(4.422604e-02 0 0 4.422604e-02 115 27)">
</image>
<image style="overflow:visible;enable-background:new    ;" width="589" height="396" xlink:href="../../../../../../../../../Users/aa/Desktop/E5C55EF5FD148CE7.png"  transform="matrix(4.545455e-02 0 0 4.545455e-02 143 27)">
</image>
<path class="st3" d="M164,12.8"/>
<path class="st3" d="M164.9,11.9"/>
<path class="st3" d="M164,11"/>
<path class="st3" d="M163.8,11.9"/>
<path class="st4" d="M174.2,10.3"/>
<path class="st5" d="M154.9,21.8"/>
<path class="st3" d="M156.5,22"/>
<image style="overflow:visible;enable-background:new    ;" width="769" height="471" xlink:href="../../../../../../../../../Users/aa/Desktop/E5C55EF5FD148CE0.png"  transform="matrix(3.901170e-02 0 0 3.901170e-02 32 27)">
</image>
<image style="overflow:visible;enable-background:new    ;" width="644" height="404" xlink:href="../../../../../../../../../Users/aa/Desktop/E5C55EF5FD148CE4.png"  transform="matrix(4.503106e-02 0 0 4.503106e-02 169 27)">
</image>
</svg>
