<?xml version="1.0" encoding="UTF-8"?><svg id="Layer_1" xmlns="http://www.w3.org/2000/svg" xmlns:xlink="http://www.w3.org/1999/xlink" viewBox="0 0 438.3 237.75"><defs><style>.cls-1{letter-spacing:-.11em;}.cls-1,.cls-2,.cls-3,.cls-4,.cls-5,.cls-6,.cls-7,.cls-8,.cls-9,.cls-10,.cls-11,.cls-12,.cls-13,.cls-14,.cls-15{isolation:isolate;}.cls-1,.cls-2,.cls-3,.cls-4,.cls-5,.cls-6,.cls-7,.cls-8,.cls-9,.cls-10,.cls-11,.cls-12,.cls-13,.cls-15{font-family:Arial-BoldMT, Arial;}.cls-1,.cls-11{font-size:11.05px;}.cls-16,.cls-17{fill:none;}.cls-2{letter-spacing:-.11em;}.cls-2,.cls-9{font-size:11.26px;}.cls-18{fill:#b3b3b3;}.cls-18,.cls-19,.cls-20,.cls-17,.cls-21{stroke:#000;}.cls-18,.cls-19,.cls-17,.cls-21{stroke-linecap:round;stroke-linejoin:round;}.cls-19,.cls-20,.cls-21{fill:#fff;}.cls-3,.cls-5{font-size:11.23px;}.cls-4{letter-spacing:-.11em;}.cls-4,.cls-15{font-size:11.16px;}.cls-22{clip-path:url(#clippath);}.cls-5{letter-spacing:-.11em;}.cls-23{fill:gray;}.cls-6{letter-spacing:-.11em;}.cls-6,.cls-10{font-size:11.06px;}.cls-7,.cls-13{font-size:11.09px;}.cls-20,.cls-17{stroke-width:.75px;}.cls-8,.cls-12{font-size:11.24px;}.cls-24{clip-path:url(#clippath-1);}.cls-25{clip-path:url(#clippath-4);}.cls-26{clip-path:url(#clippath-3);}.cls-27{clip-path:url(#clippath-2);}.cls-28{clip-path:url(#clippath-6);}.cls-29{clip-path:url(#clippath-5);}.cls-12{letter-spacing:-.11em;}.cls-13{letter-spacing:-.11em;}.cls-17{stroke-dasharray:0 0 2 1.5;}.cls-21{stroke-width:3px;}</style><clipPath id="clippath"><path class="cls-16" d="M191.25,74.5s-6.13-7.86-5.05-14.14,4.56-17.6,1.34-22,15,2.82,16.1,4.71-.8,20.11-4,25.46-8.17,7.55-8.39,5.97Z"/></clipPath><clipPath id="clippath-1"><path class="cls-16" d="M215.53,87.11s-6.13-7.86-5.05-14.15,4.56-17.6,1.34-22,15,2.83,16.1,4.71-.8,20.12-4,25.46-8.17,7.56-8.39,5.98Z"/></clipPath><clipPath id="clippath-2"><path class="cls-16" d="M241.23,100.55s-6.13-7.86-5-14.15,4.56-17.6,1.34-22,15,2.83,16.1,4.72-.81,20.11-4,25.45-8.22,7.56-8.44,5.98Z"/></clipPath><clipPath id="clippath-3"><path class="cls-16" d="M269.38,114.2s-6.12-7.86-5.05-14.15,4.57-17.6,1.35-22,15,2.83,16.1,4.71-.81,20.12-4,25.46-8.18,7.56-8.4,5.98Z"/></clipPath><clipPath id="clippath-4"><path class="cls-16" d="M298.03,126.94s-6.12-7.86-5-14.15,4.57-17.6,1.34-22,15,2.83,16.11,4.72-.81,20.11-4,25.45-8.23,7.56-8.45,5.98Z"/></clipPath><clipPath id="clippath-5"><path class="cls-16" d="M325.21,140.03s-6.13-7.87-5-14.15,4.56-17.6,1.34-22,15,2.83,16.1,4.71-.8,20.12-4,25.46-8.22,7.58-8.44,5.98Z"/></clipPath><clipPath id="clippath-6"><path class="cls-16" d="M232.2,122.45c2.65-5.08,3.18-11.01,1.47-16.48-4.91-17.18-23.12-46.14-30.63-57.67,.62,.43,1.25,.88,1.91,1.38,0,0-.51-12.14-2.19-13.31l-.27-.16c2-5.73,5-19.91-10.23-26.94-18.58-8.53-37-2.44-36.95,3.6-1.32,3.38-2.07,10.58,12.08,15.47,13.93,4.81,20.09,5.31,23.8,7.09-2,1.49-8.65,6.56-6.93,7.25l.15-.09c-.71,3.09-2.09,12,4.91,15.61-.75,3.66-1.68,7.27-2.81,10.83-1.37,2-17.13,24.61-17.73,35.43-.63,11.3,.51,37.06,13.22,55.24,8.59,12.28,9.76,13,9.61,12.21,2.13,4.81,11.34,23.26,11.34,23.26l4.12-1.87-13.8-25.27-.16,.22c-.34-3.13-1.29-10.9-2.83-14.31-2-4.33-13.86-43.55-9.86-60.25,1.01-4.23,1.91-7.89,2.68-11,2.95-2.09,5.75-4.39,8.37-6.88-3,13.73-5.17,33.12,2.7,45.48,13.08,20.51,22.14,16.77,25.43,15.27,1.63-.74,4.91-4.32,7.82-7.75,1.45-1.39,2.73-2.95,3.81-4.65,1-1.31,1.72-2.19,1.72-2.19-.24,.18-.49,.34-.75,.48ZM166.7,21.69c-6-2.63-6.31-8.82-3.38-12.15,3.44-.11,8.35,.62,15.4,3,8.38,2.84,12.32,9.83,14.18,15.79-1.13-.33-2.28-.59-3.45-.77-10.99-1.76-16.27-3.02-22.75-5.87Zm48.67,101.51c-12.19-3.33-18.14-12.41-18-21.38,.15-7.87,3.43-31.28,3.22-41.41,.08-1.14-.03-2.29-.31-3.4-.09-.37-.18-.7-.27-1-.46-1.71-.88-3.24-1.26-4.62,6.57,11.55,21.84,58.32,22.86,63.34,.54,2.63,1.34,6.43,2,9.68-2.79-.03-5.56-.44-8.24-1.21Z"/></clipPath></defs><path class="cls-21" d="M1.8,215.29h0Z"/><path class="cls-21" d="M435.29,172.88c-.04,.51-.16,1.02-.36,1.49-.17-2.87-.5-5.73-1-8.56l-.08-.33c.22-.22,.41-.47,.58-.74h-.74c-1.39-6-2.9-5.73-2.9-5.73-.25,.54-.54,1.05-.87,1.54,.4-20.53-17.21-29.65-38-33.48-15.49-2.83-40.98-10.81-53.98-15.04,.12-1.14,.02-2.29-.29-3.4-1.07-1.89-19.32-9.12-16.1-4.72,.09,.14,.17,.29,.25,.44-2.67-1.33-5.47-2.71-8.4-4.13l-2.63-1.32c.12-1.14,.02-2.29-.29-3.39-1.08-1.89-19.33-9.11-16.11-4.71,.09,.11,.14,.24,.22,.36-4.22-2-8.43-3.94-12.46-5.85,.06-.86-.04-1.72-.3-2.54-1-1.69-15.68-7.65-16.44-5.73l-11.45-6.07c.02-.63-.08-1.26-.29-1.86-.81-1.37-10.71-5.58-14.78-6.08-3.53-1.85-7.11-3.71-10.66-5.54,.02-.63-.08-1.25-.29-1.84-.82-1.45-11.79-6-15.36-6.11-2.73-1.36-5.37-2.65-7.87-3.85-.29-3.65-.88-8.62-1.93-9.34l-.27-.17c0-.15,.11-.31,.16-.47,0-.05,0-.09,0-.14,.05-.15,.1-.31,.15-.48l.06-.22,.15-.48c0-.1,0-.2,.08-.3s.13-.51,.2-.78,.07-.3,.11-.45l.09-.41c0-.17,.07-.33,.1-.5s.05-.27,.08-.41,.07-.39,.1-.6,0-.23,.05-.34c0-.32,.09-.63,.13-.95v-.29l.06-.74v-2.52c0-.36,0-.73-.07-1.1v-.29c0-.28-.06-.55-.09-.83l-.06-.36c0-.27-.09-.55-.15-.82l-.06-.31c-.08-.38-.18-.76-.28-1.14h0c-.11-.36-.23-.73-.36-1.09l-.12-.32-.33-.81c-.06-.12-.11-.24-.16-.35-.14-.29-.28-.57-.43-.85l-.14-.26c-.21-.36-.43-.72-.67-1.08-.04-.07-.09-.14-.14-.2-.2-.29-.4-.57-.63-.85-.08-.12-.18-.23-.27-.34l-.62-.72-.31-.33c-.26-.27-.54-.54-.83-.8l-.2-.19c-.35-.32-.74-.63-1.13-.94l-.35-.25c-.3-.22-.61-.44-.94-.65-.15-.11-.31-.21-.47-.31l-1-.59c-.16-.09-.31-.18-.48-.26-.49-.27-1-.53-1.53-.77h0l-.25-.15-1.49-.65-.68-.26c-.37-.14-.73-.29-1.1-.42l-.73-.26-1-.35-.77-.23-1-.29-.78-.2c-.32-.08-.64-.17-1-.24l-.74-.21-1-.2-.71-.1-.94-.16-.76-.11-.91-.11-.76-.08-.89-.08h-.74l-.87-.05h-5.3l-.71,.07-.72,.09-.65,.09-.73,.11-.57,.11-.75,.14-.48,.11-.78,.19-.37,.1-.82,.23-.23,.07-.89,.3h0c-4.2,1.5-6.76,3.76-6.73,6h0v.1c-.05,.13-.1,.27-.15,.42l-.06,.2-.06,.22c-.05,.11-.1,.22-.13,.34-.02,.07-.04,.13-.05,.2-.04,.15-.07,.3-.09,.46,0,.04,0,.08,0,.12,0,.13,0,.26-.06,.39s0,.13,0,.19v.55c0,.19,0,.37,0,.56v.59c0,.17,0,.11,0,.16s0,.33,.07,.5v.12c0,.2,.09,.42,.15,.63,0,.03,0,.05,0,.08,.06,.19,.12,.37,.19,.56l.06,.16c.07,.19,.16,.38,.25,.56,0,.03,0,.06,0,.09,.11,.23,.23,.45,.36,.67l.06,.1c.12,.19,.24,.38,.38,.57l.11,.16c.15,.19,.3,.39,.47,.59l.06,.07c.19,.23,.4,.45,.62,.68l.13,.12c.18,.18,.38,.36,.59,.55l.19,.16c.23,.2,.48,.41,.75,.61l.06,.05c.29,.22,.61,.43,.93,.65l.23,.15,.82,.5,.29,.17c.35,.2,.71,.39,1.1,.59h.05l1.28,.61,.36,.15,1.08,.45,.4,.16c.5,.2,1,.39,1.55,.57h.11l2.12,.72,.64,.21,1.71,.55,.38,.12,1.85,.57,.61,.19,1.26,.37,.55,.16,1.48,.42,.7,.2,.78,.21c5.82,1.57,9.23,2.19,11.61,3.33h0l-.31,.23-.15,.12-.39,.29-.16,.12-.36,.28-.18,.14-.47,.36h0c-1.6-.23-2.4,.06-1.62,1.21l-.86-.27c-7.52-2.15-12.59-.65-15.29,.72-16.69-6.3-17.71-6.22-17.71-6.22-.03,.41-.09,.82-.18,1.22-6.51,1.9-11.51,12.59-14.91,22.95-9.41,5.17-30.43,15.72-49,18-24.85,3.1-35-10.46-52.85-24-6.71-5.09-11.17-6.84-14.12-7-.68-.13-1.37-.13-2.05,0-2.52,.31-4.51,2.29-4.84,4.8l-.25-.27,.21,.54c-.16,1.24-.13,2.51,.09,3.74-2.22,11.29-11.82,60.55-11.4,65.3l1.28,.42c-2.29,20.63-2.14,46.87-2,55.28-.22-.26-.29-.61-.19-.94-.69,.86-1.26,1.82-1.69,2.83-.7,1.65,.42,37.93,.48,41.32-.2-.36-.32-.76-.35-1.17,0,1.89,0,8.78,2,10.72,2.42,2.26,22.69,10.74,87.36,8.48,64.67-2.26,160.24,2,181.72,1.7s84-4.53,123.32-13.85,40.28-20.35,40.52-22.35-1.49-27.15-1.49-27.15ZM190.24,27.69l-.79-.14c-11-1.75-16.27-3-22.75-5.86-.38-.17-.74-.35-1.1-.56l-.29-.2c-.23-.14-.46-.29-.66-.44s-.22-.18-.32-.27-.35-.29-.51-.44-.19-.21-.29-.32c-.14-.14-.27-.29-.39-.45-.09-.11-.18-.23-.26-.35s-.21-.31-.3-.46-.15-.26-.22-.39-.15-.3-.22-.46-.11-.27-.16-.41c-.06-.15-.11-.3-.15-.45-.05-.15-.09-.3-.12-.45,0-.14-.06-.28-.08-.42s-.05-.33-.07-.49,0-.25,0-.37v-.82c0-.21,.03-.41,.06-.62,0-.04,0-.09,0-.13,.21-1.35,.8-2.61,1.69-3.64h0c.94-.02,1.88,0,2.82,.09h.14c.45,0,.92,.1,1.4,.16h.3c.5,.07,1,.15,1.55,.25h.18c.6,.11,1.23,.24,1.88,.39l.3,.07c.54,.12,1.1,.26,1.67,.41l.61,.17,1.59,.45,.63,.19c.75,.23,1.52,.48,2.33,.75,.51,.17,1,.36,1.49,.56l.42,.2c.32,.15,.65,.29,1,.45l.49,.27c.27,.15,.55,.3,.81,.46s.32,.22,.49,.32l.71,.48,.47,.36,.65,.51,.45,.39,.59,.53c.14,.14,.28,.27,.41,.41s.38,.38,.55,.57l.38,.42,.51,.6,.34,.43c.16,.21,.32,.42,.47,.64l.3,.42,.45,.67,.26,.42,.42,.71,.22,.39c.14,.25,.27,.5,.4,.76l.18,.36c.13,.27,.26,.54,.38,.81,0,.1,.09,.2,.14,.31,.13,.29,.25,.59,.37,.88l.09,.24c.13,.34,.26,.67,.38,1v.09c.13,.38,.26,.75,.37,1.12-.81-.25-1.64-.45-2.48-.61l-.18,.04Z"/><path class="cls-21" d="M1.81,215.24c-.01-.15-.01-.29,0-.44v.44Z"/><path class="cls-18" d="M168.99,40.24s5.79-5.65,17.62-2.26,56.23,27.13,79.15,39.28,70,30.81,70.95,39.29-147.21-31.09-152.77-41.52-14.95-34.79-14.95-34.79Z"/><path class="cls-18" d="M16.87,47.12s1.94-10.18,19.79,3.39c17.85,13.57,28,27.13,52.85,24s54.06-20.91,54.06-20.91l14.72,11.58s-71.91,39-88.08,39S15.94,54.18,15.94,51.92c.06-1.64,.38-3.26,.93-4.8Z"/><path class="cls-18" d="M133.35,77.26s7.17-41.77,20.93-43.75-13.44,46.58-20.93,43.75Z"/><path class="cls-19" d="M136.17,74.72s17.19-35.69,17.44-42.24c0,0,1.87-.15,42.17,15.67s113.66,57.66,113.16,64.72-172.77-38.15-172.77-38.15Z"/><path class="cls-17" d="M140.52,72.66c3.78-8,11.51-24.65,14.69-34.23l1.42-4.92"/><path class="cls-19" d="M329.63,109.29s40.79,13.85,62.26,17.81,39.58,13.56,37.89,35.61c0,0-34.27,21.76-58.4,19.78s-41.75-73.2-41.75-73.2Z"/><path class="cls-19" d="M16.15,54.18s-3.14-9.32,4.34-10.74c7.48-1.42,18.35,15,29,26s15.69,17.53,43,15,57.6-20.41,57.6-20.41c0,0-76.26,58.83-93.15,50.63S16.15,54.18,16.15,54.18Z"/><path class="cls-19" d="M3.6,176.03s-1.2-50.59,4.59-73.76,22.44-25.48,22.44-25.48c0,0,31.61,17.81,72.4,8.76s60.33-37,76.74-41.82,52.37,20.3,113.17,47.19c60.8,26.89,72.16,36.18,77.71,90.44,0,0-66.13,17.81-125.49,13.57s-219.61-8.76-219.61-8.76l-21.95-10.14Z"/><path class="cls-17" d="M70.17,90.83c3,.25,6.15,.39,9.39,.39,8.11,0,16.19-.88,24.11-2.64,26.27-5.82,44.27-19.55,57.39-29.55,7.5-5.73,14-10.67,19.54-12.3,1.2-.34,2.44-.5,3.69-.48,10.46,0,28.05,8.86,52.38,21.12,15.81,8,33.73,17,55.08,26.42,31.35,13.84,48.1,22.48,58.55,34.18,9.46,10.61,14,24,17,50.17l.2,2.13"/><path class="cls-19" d="M16.15,49.94S3.82,112.19,4.3,117.56c0,0,25.9,9.09,46.41,3.44,20.51-5.65,28.23-33.07,28.23-33.07,0,0-25.89,.73-40.12-14.81S15.4,48.03,15.4,48.03l.75,1.91Z"/><path class="cls-23" d="M3.94,175.54v-11.62c.29,.05,0-.18,.28-.09,6.53,1.49,13.17,2.5,19.85,3,22.62,2.06,100.7,2.2,124.09,2.2,13.46,0,36.05,.91,60,1.87,29.46,1.18,62.8,2.52,87.05,2.52,4.72,0,9,0,12.69-.15,8.08-.22,16.1-.57,23.85-1.06l2,11.37c-8.28,.53-16.87,.92-25.53,1.15-3.8,.11-8.18,.16-13,.16-24.48,0-57.94-1.35-87.46-2.53-23.85-1-46.33-1.87-59.56-1.87-23.52,0-102-.16-125.1-2.26-6.51-.61-12.98-1.54-19.39-2.79m2.23-10.71h0Zm0,0h0Z"/><path class="cls-19" d="M3.36,172.32s-1.93,4,19.79,5.93c21.72,1.93,92.43,2.26,125,2.26s118.49,5.37,160,4.24,114.39-7.34,122.6-25.72c0,0,1.69-.28,3.14,6.79s1.68,22.61,1.68,22.61c0,0-101.83,42.11-168.63,41.83s-215.56-1.42-230.52-2.23S2.15,218.14,2.15,216.73s-1.21-39.89-.48-41.59c.44-1.01,1-1.96,1.69-2.82Z"/><path class="cls-20" d="M11.46,182.37c-.11,.54-.64,.89-1.18,.78h-.01l-1-.24h-.25l-.25-.05-.54-.11c-.71-.15-1.42-.32-2.12-.52-1.5-.36-2.93-.96-4.23-1.78-.28-.2-.45-.51-.48-.85-.02-.28,.13-.54,.38-.67,.23-.11,.48-.18,.73-.21,.19-.04,.39,0,.55,.12,1.12,.66,2.33,1.16,3.59,1.46,.65,.19,1.33,.34,2,.49l.5,.1,.28,.05,.26,.07,1,.23c.51,.11,.85,.61,.77,1.13Z"/><path class="cls-20" d="M22.6,183.88c-.05,.55-.54,.95-1.09,.9-2.84-.28-5.68-.62-8.5-1.11-.54-.09-.91-.61-.82-1.15h0c.1-.55,.62-.92,1.16-.82h0c2.75,.47,5.55,.81,8.35,1.09,.55,.05,.95,.54,.9,1.09Z"/><path class="cls-20" d="M33.82,184.6c-.03,.53-.47,.94-1,.94-2.84-.15-5.68-.29-8.52-.53-.54-.05-.95-.52-.91-1.07,.04-.55,.51-.97,1.07-.93h0c2.81,.24,5.63,.38,8.46,.53,.54,.05,.93,.52,.9,1.06Z"/><path class="cls-20" d="M45.06,185.03c0,.55-.45,1-1,1l-8.5-.32c-.55,0-1-.45-1-1s.45-1,1-1l8.49,.32c.55,0,1,.44,1.01,.99h0Z"/><path class="cls-20" d="M56.31,185.33c0,.55-.45,1-1,1l-8.5-.23c-.55-.02-.99-.48-.97-1.03,.02-.55,.48-.99,1.03-.97l8.49,.23c.53,.03,.95,.47,.95,1Z"/><path class="cls-20" d="M67.55,185.56c0,.55-.45,1-1,1l-8.51-.17c-.55,0-1-.45-1-1s.45-1,1-1l8.49,.18c.55-.01,1.01,.43,1.02,.98h0Z"/><path class="cls-20" d="M78.8,185.74c0,.55-.45,1-1,1l-8.51-.13c-.55,0-1-.45-1-1s.45-1,1-1l8.5,.14c.55,0,1,.44,1.01,.99h0Z"/><path class="cls-20" d="M90.05,185.87c0,.55-.45,1-1,1l-8.5-.1c-.55,0-1-.45-1-1s.45-1,1-1l8.5,.11c.55,0,.99,.44,1,.99Z"/><path class="cls-20" d="M101.3,186.03c0,.55-.45,1-1,1l-8.5-.08c-.55,0-1-.45-1-1s.45-1,1-1l8.5,.08c.55,0,1,.45,1,1Z"/><path class="cls-20" d="M112.54,186.03c0,.55-.45,1-1,1l-8.5-.06c-.55,0-1-.45-1-1s.45-1,1-1l8.5,.06c.55,0,1,.45,1,1Z"/><path class="cls-20" d="M123.79,186.12c0,.55-.45,1-1,1h-8.5c-.55,0-1-.45-1-1s.45-1,1-1h8.5c.55,0,1,.45,1,1Z"/><path class="cls-20" d="M135.04,186.15c0,.55-.45,1-1,1h-8.5c-.55,0-1-.45-1-1s.45-1,1-1h8.5c.55,0,1,.45,1,1Z"/><path class="cls-20" d="M146.29,186.17c0,.55-.45,1-1,1h-8.5c-.55,0-1-.45-1-1s.45-1,1-1h8.5c.55,0,1,.45,1,1Z"/><path class="cls-20" d="M157.54,186.28c0,.55-.45,1-1,1-2.83,0-5.66-.09-8.48-.09-.55,0-1-.45-1-1s.45-1,1-1c2.84,0,5.68,.03,8.52,.1,.53,.02,.96,.46,.96,.99Z"/><path class="cls-20" d="M168.78,186.58c0,.55-.45,1-1,1l-8.49-.23c-.55,0-1-.45-1-1s.45-1,1-1l8.5,.23c.55,0,.99,.45,.99,1Z"/><path class="cls-20" d="M180.02,186.96c0,.55-.45,1-1,1l-8.49-.29c-.55-.02-.99-.48-.97-1.03s.48-.99,1.03-.97l8.5,.29c.52,.04,.93,.47,.93,1Z"/><path class="cls-20" d="M191.26,187.38c0,.55-.45,1-1,1l-8.5-.32c-.55-.02-.98-.49-.96-1.04,.02-.55,.49-.98,1.04-.96l8.49,.32c.52,.04,.93,.47,.93,1Z"/><path class="cls-20" d="M202.5,187.83c0,.55-.45,1-1,1l-8.49-.34c-.55-.02-.98-.49-.96-1.04,.02-.55,.49-.98,1.04-.96l8.49,.33c.52,.04,.93,.48,.92,1.01Z"/><path class="cls-20" d="M213.74,188.28c0,.55-.45,1-1,1l-8.49-.34c-.55,0-1-.45-1-1s.45-1,1-1l8.49,.34c.55,0,1,.45,1,1Z"/><path class="cls-20" d="M224.94,188.72c0,.55-.45,1-1,1l-8.49-.33c-.55-.02-.98-.49-.96-1.04,.02-.55,.49-.98,1.04-.96l8.49,.34c.52,.04,.92,.47,.92,.99Z"/><path class="cls-20" d="M236.22,189.15c0,.55-.45,1-1,1l-8.5-.32c-.55-.02-.98-.49-.96-1.04,.02-.55,.49-.98,1.04-.96l8.49,.32c.52,.04,.93,.47,.93,1Z"/><path class="cls-20" d="M247.46,189.55c0,.55-.45,1-1,1l-8.5-.31c-.55,0-1-.45-1-1s.45-1,1-1l8.49,.3c.55,0,1,.44,1.01,.99,0,0,0,.01,0,.02Z"/><path class="cls-20" d="M258.71,189.91c0,.55-.45,1-1,1l-8.5-.27c-.55,0-1-.45-1-1s.45-1,1-1l8.5,.27c.55,0,1,.45,1,1Z"/><path class="cls-20" d="M269.94,190.22c0,.55-.45,1-1,1l-8.51-.23c-.55-.02-.99-.48-.97-1.03s.48-.99,1.03-.97l8.5,.23c.53,.03,.95,.47,.95,1Z"/><path class="cls-20" d="M281.2,190.44c0,.55-.45,1-1,1l-8.5-.17c-.55,0-1-.45-1-1s.45-1,1-1l8.49,.17c.55,0,1,.44,1.01,.99h0Z"/><path class="cls-20" d="M292.44,190.56c0,.55-.45,1-1,1l-8.51-.08c-.55,0-1-.45-1-1s.45-1,1-1l8.49,.09c.55-.01,1.01,.43,1.02,.98h0Z"/><path class="cls-20" d="M303.69,190.46c0,.55-.45,1-1,1l-8.52,.09c-.55,0-1-.45-1-1s.45-1,1-1l8.49-.09c.55-.02,1.01,.42,1.03,.97v.03Z"/><path class="cls-20" d="M314.94,190.19c0,.55-.45,1-1,1-2.83,.1-5.67,.21-8.51,.22-.55,0-1-.45-1-1s.45-1,1-1c2.83,0,5.65-.12,8.48-.22,.55-.02,1.01,.42,1.03,.97v.03Z"/><path class="cls-20" d="M326.17,189.67c.03,.55-.39,1.02-.94,1.05l-8.51,.4c-.55,0-1-.45-1-1,0-.53,.42-.97,.95-1l8.48-.4c.54-.01,.99,.41,1.02,.95Z"/><path class="cls-20" d="M337.4,189.03c.03,.55-.38,1.02-.93,1.06-2.83,.2-5.66,.37-8.5,.53-.55,.03-1.02-.39-1.05-.95s.39-1.02,.95-1.05c2.83-.16,5.65-.33,8.47-.53,.55-.04,1.03,.37,1.07,.93h0Z"/><path class="cls-20" d="M348.61,188.1c.04,.55-.37,1.02-.91,1.07l-8.48,.68c-.55,.04-1.03-.37-1.08-.93-.04-.55,.37-1.03,.93-1.07h0l8.46-.67c.55-.05,1.03,.36,1.08,.91h0Z"/><path class="cls-20" d="M359.81,187.03c.05,.55-.34,1.03-.89,1.09-2.82,.31-5.65,.58-8.47,.84-.55,.05-1.04-.35-1.1-.9s.35-1.04,.9-1.1c2.82-.26,5.64-.53,8.45-.83,.55-.06,1.04,.34,1.1,.89h0Z"/><path class="cls-20" d="M370.94,185.68c.06,.55-.32,1.04-.87,1.11-2.81,.37-5.63,.7-8.45,1-.55,.06-1.05-.34-1.11-.89-.06-.55,.34-1.05,.89-1.11,2.81-.32,5.61-.65,8.42-1,.55-.07,1.05,.32,1.12,.87v.02Z"/><path class="cls-20" d="M382.11,184.03c.08,.54-.29,1.05-.83,1.14-2.81,.45-5.62,.87-8.43,1.24-.55,.08-1.05-.3-1.13-.85-.08-.55,.29-1.06,.84-1.14h.02c2.8-.38,5.59-.78,8.38-1.23,.55-.09,1.06,.28,1.15,.83h0Z"/><path class="cls-20" d="M393.18,182.03c.1,.54-.25,1.06-.79,1.17-2.79,.56-5.59,1.05-8.39,1.52-.55,.09-1.07-.28-1.17-.84-.09-.55,.28-1.07,.84-1.16,2.78-.47,5.57-1,8.33-1.52,.54-.11,1.07,.25,1.17,.79v.04Z"/><path class="cls-20" d="M404.14,179.56c.14,.53-.18,1.08-.72,1.22h0c-2.76,.68-5.54,1.33-8.33,1.9-.54,.11-1.06-.23-1.18-.77-.12-.54,.23-1.07,.77-1.19h.01c2.76-.57,5.5-1.21,8.24-1.89,.54-.13,1.08,.19,1.21,.73Z"/><path class="cls-20" d="M414.94,176.29c.19,.52-.08,1.09-.61,1.28h0c-2.71,.93-5.44,1.75-8.19,2.5-.53,.15-1.08-.17-1.23-.7h0c-.14-.54,.17-1.08,.7-1.23,2.71-.75,5.41-1.55,8.06-2.47,.52-.18,1.09,.1,1.27,.62Z"/><path class="cls-20" d="M425.16,171.71c.28,.48,.12,1.09-.35,1.37h-.02c-2.55,1.35-5.19,2.53-7.89,3.54-.52,.2-1.09-.06-1.29-.58-.2-.52,.06-1.09,.58-1.29,2.61-.97,5.15-2.11,7.61-3.41,.48-.27,1.09-.11,1.36,.37Z"/><path class="cls-20" d="M434.17,165.03c.4,.38,.42,1.01,.05,1.41-.02,.02-.03,.03-.05,.05-2.17,1.92-4.51,3.63-7,5.12-.47,.29-1.09,.15-1.38-.32h0c-.29-.47-.15-1.09,.32-1.38h0c2.38-1.41,4.61-3.03,6.69-4.85,.39-.34,.97-.35,1.37-.03Z"/><path class="cls-17" d="M146.15,71.34c3.51,.37,172.44,75,179.63,86.29s8.83,32.64,8.83,32.64"/><path class="cls-19" d="M192.65,77.18c-.61,0-1.22-.07-1.82-.21-3.83-.89-6.48-4.41-5.9-7.83s4.18-5.47,8-4.58,6.48,4.41,5.89,7.83c-.28,1.72-1.37,3.21-2.93,4-1,.53-2.11,.8-3.24,.79Zm-1.51-10.31c-2.07,0-3.82,1.1-4.1,2.77-.34,2,1.58,4.25,4.21,4.86,1.26,.33,2.6,.19,3.76-.39,.89-.42,1.53-1.24,1.72-2.21h0c.34-2-1.58-4.26-4.21-4.87-.45-.11-.92-.16-1.38-.16Z"/><path class="cls-19" d="M191.25,74.5s-6.13-7.86-5.05-14.14,4.56-17.6,1.34-22,15,2.82,16.1,4.71-.8,20.11-4,25.46-8.17,7.55-8.39,5.97Z"/><g class="cls-22"><g class="cls-14" transform="matrix(0.1, -1.02, 0.99, 0.1, 197.68, 69.33)"><text class="cls-15" transform="translate(197.62 69.36) rotate(-84.4) scale(1.03 1) skewX(-.16)"><tspan x="0" y="0">SK</tspan></text><text class="cls-4" transform="translate(199.36 51.57) rotate(-84.4) scale(1.03 1) skewX(-.16)"><tspan x="0" y="0">A</tspan></text><text class="cls-15" transform="translate(200.16 43.45) rotate(-84.4) scale(1.03 1) skewX(-.16)"><tspan x="0" y="0">TE</tspan></text></g></g><path class="cls-19" d="M216.94,89.79c-.61,0-1.22-.07-1.82-.22-3.83-.89-6.48-4.4-5.9-7.82s4.18-5.48,8-4.58,6.48,4.4,5.89,7.82c-.28,1.72-1.37,3.21-2.93,4-1,.53-2.11,.8-3.24,.8Zm-1.51-10.32c-2.07,0-3.82,1.1-4.1,2.77-.34,2,1.58,4.25,4.21,4.87,1.26,.32,2.6,.18,3.76-.4,.89-.42,1.53-1.24,1.72-2.21h0c.34-2-1.58-4.25-4.21-4.87-.46-.11-.92-.16-1.39-.16h.01Z"/><path class="cls-19" d="M215.53,87.11s-6.13-7.86-5.05-14.15,4.56-17.6,1.34-22,15,2.83,16.1,4.71-.8,20.12-4,25.46-8.17,7.56-8.39,5.98Z"/><g class="cls-24"><g class="cls-14" transform="matrix(0.1, -1.02, 0.99, 0.1, 218.96, 107.98)"><text class="cls-15" transform="translate(218.9 108.01) rotate(-84.4) scale(1.03 1) skewX(-.16)"><tspan x="0" y="0">SK</tspan></text><text class="cls-4" transform="translate(220.64 90.22) rotate(-84.4) scale(1.03 1) skewX(-.16)"><tspan x="0" y="0">A</tspan></text><text class="cls-15" transform="translate(221.44 82.1) rotate(-84.4) scale(1.03 1) skewX(-.16)"><tspan x="0" y="0">TE</tspan></text></g></g><path class="cls-19" d="M242.63,103.23c-.61,0-1.22-.07-1.82-.21-3.84-.9-6.48-4.41-5.9-7.83s4.18-5.48,8-4.58,6.47,4.41,5.89,7.83c-.29,1.72-1.38,3.2-2.93,4-1,.52-2.11,.79-3.24,.79Zm-1.51-10.32c-2.07,0-3.82,1.11-4.1,2.77-.35,2,1.58,4.26,4.21,4.87,1.26,.32,2.59,.19,3.76-.39,.89-.43,1.53-1.25,1.72-2.22h0c.34-2-1.59-4.25-4.21-4.87-.45-.1-.92-.15-1.38-.16h0Z"/><path class="cls-19" d="M241.23,100.55s-6.13-7.86-5-14.15,4.56-17.6,1.34-22,15,2.83,16.1,4.72-.81,20.11-4,25.45-8.22,7.56-8.44,5.98Z"/><g class="cls-27"><g class="cls-14" transform="matrix(0.1, -1.02, 0.99, 0.1, 246.53, 106.87)"><text class="cls-15" transform="translate(246.47 106.9) rotate(-84.4) scale(1.03 1) skewX(-.16)"><tspan x="0" y="0">SK</tspan></text><text class="cls-4" transform="translate(248.21 89.1) rotate(-84.4) scale(1.03 1) skewX(-.16)"><tspan x="0" y="0">A</tspan></text><text class="cls-15" transform="translate(249.01 80.99) rotate(-84.4) scale(1.03 1) skewX(-.16)"><tspan x="0" y="0">TE</tspan></text></g></g><path class="cls-19" d="M270.79,116.88c-.62,0-1.23-.07-1.83-.22-3.83-.89-6.47-4.4-5.89-7.82s4.18-5.48,8-4.58,6.47,4.4,5.89,7.82c-.29,1.72-1.38,3.2-2.93,4-1,.53-2.11,.8-3.24,.8Zm-1.52-10.32c-2.07,0-3.81,1.1-4.09,2.77-.35,2,1.58,4.25,4.2,4.87,1.26,.32,2.6,.18,3.77-.4,.89-.42,1.52-1.24,1.71-2.21h0c.35-2-1.58-4.25-4.2-4.87-.46-.11-.92-.16-1.39-.16h0Z"/><path class="cls-19" d="M269.38,114.2s-6.12-7.86-5.05-14.15,4.57-17.6,1.35-22,15,2.83,16.1,4.71-.81,20.12-4,25.46-8.18,7.56-8.4,5.98Z"/><g class="cls-26"><g class="cls-14" transform="matrix(0.1, -1.02, 0.99, 0.1, 277.68, 102.13)"><text class="cls-15" transform="translate(277.62 102.16) rotate(-84.4) scale(1.03 1) skewX(-.16)"><tspan x="0" y="0">SK</tspan></text><text class="cls-4" transform="translate(279.36 84.36) rotate(-84.4) scale(1.03 1) skewX(-.16)"><tspan x="0" y="0">A</tspan></text><text class="cls-15" transform="translate(280.16 76.25) rotate(-84.4) scale(1.03 1) skewX(-.16)"><tspan x="0" y="0">TE</tspan></text></g></g><path class="cls-19" d="M299.44,129.62c-.62,0-1.23-.07-1.83-.21-3.83-.9-6.47-4.41-5.89-7.83s4.18-5.48,8-4.58,6.47,4.41,5.89,7.83c-.29,1.72-1.38,3.2-2.93,4-1,.52-2.11,.8-3.24,.79Zm-1.5-10.32c-2.07,0-3.81,1.11-4.1,2.77-.34,2,1.59,4.26,4.21,4.87,1.26,.33,2.6,.19,3.77-.39,.89-.43,1.52-1.25,1.71-2.22h0c.35-2-1.58-4.25-4.2-4.87-.46-.1-.92-.16-1.39-.16Z"/><path class="cls-19" d="M298.03,126.94s-6.12-7.86-5-14.15,4.57-17.6,1.34-22,15,2.83,16.11,4.72-.81,20.11-4,25.45-8.23,7.56-8.45,5.98Z"/><g class="cls-25"><g class="cls-14" transform="matrix(0.1, -1.02, 0.99, 0.1, 302.68, 142.2)"><text class="cls-15" transform="translate(302.62 142.23) rotate(-84.4) scale(1.03 1) skewX(-.16)"><tspan x="0" y="0">SK</tspan></text><text class="cls-4" transform="translate(304.36 124.44) rotate(-84.4) scale(1.03 1) skewX(-.16)"><tspan x="0" y="0">A</tspan></text><text class="cls-15" transform="translate(305.16 116.32) rotate(-84.4) scale(1.03 1) skewX(-.16)"><tspan x="0" y="0">TE</tspan></text></g></g><path class="cls-19" d="M326.61,142.74c-.61,0-1.22-.07-1.82-.22-3.83-.89-6.48-4.4-5.9-7.82s4.18-5.48,8-4.58,6.48,4.4,5.89,7.82c-.28,1.72-1.37,3.21-2.93,4-1,.53-2.11,.8-3.24,.8Zm-1.51-10.32c-2.07,0-3.82,1.1-4.1,2.77-.35,2,1.58,4.25,4.21,4.87,1.26,.32,2.6,.18,3.76-.4,.89-.42,1.53-1.24,1.72-2.21h0c.34-2-1.58-4.25-4.21-4.87-.45-.11-.92-.16-1.38-.16h0Z"/><path class="cls-19" d="M325.21,140.03s-6.13-7.87-5-14.15,4.56-17.6,1.34-22,15,2.83,16.1,4.71-.8,20.12-4,25.46-8.22,7.58-8.44,5.98Z"/><g class="cls-29"><g class="cls-14" transform="matrix(0.1, -1.02, 0.99, 0.1, 330.51, 143.31)"><text class="cls-15" transform="translate(330.45 143.34) rotate(-84.4) scale(1.03 1) skewX(-.16)"><tspan x="0" y="0">SK</tspan></text><text class="cls-4" transform="translate(332.19 125.54) rotate(-84.4) scale(1.03 1) skewX(-.16)"><tspan x="0" y="0">A</tspan></text><text class="cls-15" transform="translate(332.99 117.43) rotate(-84.4) scale(1.03 1) skewX(-.16)"><tspan x="0" y="0">TE</tspan></text></g></g><path class="cls-19" d="M199.76,43.34s27.68,40.81,33.91,62.63c4.59,16.07-8.65,24.82-8.65,24.82,0,0-2.25-10.58-3.37-16.06s-19.23-60.81-24.45-65.58,2.56-5.81,2.56-5.81Z"/><path class="cls-18" d="M156.29,11.03s-8,10.78,11.1,17.36,23.58,5.1,27.17,9.84,3.38-3.89,3.38-3.89c0,0,2.54-5-8.45-6.78s-16.27-3-22.75-5.87-6.34-9.86-2.6-12.92-7.85,2.26-7.85,2.26Z"/><path class="cls-19" d="M184.69,41.52s-4,12.7,5,16.86c10.53,4.87,2.75-15.56,2.75-15.56l-7.75-1.3Z"/><path class="cls-19" d="M195.77,59.66c0,1.17-14.67,41.09-1.59,61.61s22.13,16.77,25.42,15.27,13.34-14.59,13.34-14.59c0,0-5.4,4.59-17.58,1.25s-18.13-12.41-18-21.38,4.41-38.15,2.91-44.81-5.24-3.61-5.24-3.61l.74,6.26Z"/><path class="cls-19" d="M155.43,13.69c-1.92-6.27,17.4-13.34,36.83-4.42s9.23,29.42,9.23,29.42l-6.93-.51s0-20.27-15.84-25.64c-21.9-7.41-23.29,1.15-23.29,1.15Z"/><path class="cls-19" d="M190.81,42.03s1.73,16-10.21,42.35c0,0,23.14-14.42,19.72-27.35s-5-16.48-5-16.48l-4.51,1.48Z"/><path class="cls-19" d="M186.61,68.86s-17.2,24.27-17.83,35.58,.51,37.06,13.22,55.24,9.18,11.08,9.18,11.08l2.06-1.13s-1-11.34-3-15.66-13.86-43.55-9.86-60.25,6.23-24.86,6.23-24.86Z"/><path class="cls-19" d="M191.18,170.76c0,.78,11.77,24.39,11.77,24.39l4.12-1.87-13.8-25.25-2.09,2.73Z"/><path class="cls-19" d="M184.26,42.68s5.8-4.19,20.69,7c0,0-.51-12.14-2.19-13.31-3.26-2.12-7.32-2.62-11-1.36,0,0-9.52,6.85-7.5,7.67Z"/><g class="cls-28"><g><g class="cls-14" transform="matrix(-0.28, -0.99, 0.97, -0.26, 189.1, 156.98)"><text class="cls-9" transform="translate(189.04 157.01) rotate(-105.79) scale(1.02 1) skewX(-.77)"><tspan x="0" y="0">SK</tspan></text><text class="cls-2" transform="translate(184.16 139.75) rotate(-105.79) scale(1.02 1) skewX(-.77)"><tspan x="0" y="0">A</tspan></text><text class="cls-9" transform="translate(181.93 131.89) rotate(-105.79) scale(1.02 1) skewX(-.77)"><tspan x="0" y="0">TE</tspan></text></g><g class="cls-14" transform="matrix(0.32, 0.98, -0.96, 0.29, 213.96, 79.98)"><text class="cls-8" transform="translate(213.9 80.01) rotate(71.92) scale(1.03 1) skewX(-1.24)"><tspan x="0" y="0">SK</tspan></text><text class="cls-12" transform="translate(219.48 97.1) rotate(71.92) scale(1.03 1) skewX(-1.24)"><tspan x="0" y="0">A</tspan></text><text class="cls-8" transform="translate(222.02 104.89) rotate(71.92) scale(1.03 1) skewX(-1.24)"><tspan x="0" y="0">TE</tspan></text></g><g class="cls-14" transform="matrix(0.02, -1.02, 1, 0.03, 198.06, 119.98)"><text class="cls-3" transform="translate(198 120.01) rotate(-88.88) scale(1.02 1) skewX(-.58)"><tspan x="0" y="0">SK</tspan></text><text class="cls-5" transform="translate(198.35 102.21) rotate(-88.88) scale(1.02 1) skewX(-.58)"><tspan x="0" y="0">A</tspan></text><text class="cls-3" transform="translate(198.51 94.1) rotate(-88.88) scale(1.02 1) skewX(-.58)"><tspan x="0" y="0">TE</tspan></text></g><g class="cls-14" transform="matrix(1.06, 0.02, -0.03, 1, 211.27, 135.53)"><text class="cls-11" transform="translate(211.21 135.56) rotate(1.08) scale(1.06 1) skewX(-.6)"><tspan x="0" y="0">SK</tspan></text><text class="cls-1" transform="translate(229.42 135.91) rotate(1.08) scale(1.06 1) skewX(-.6)"><tspan x="0" y="0">A</tspan></text><text class="cls-11" transform="translate(237.72 136.06) rotate(1.08) scale(1.06 1) skewX(-.6)"><tspan x="0" y="0">TE</tspan></text></g><g class="cls-14" transform="matrix(1, 0.32, -0.32, 0.95, 159.92, 8.98)"><text class="cls-7" transform="translate(159.86 9.01) rotate(17.74) scale(1.05 1) skewX(-.83)"><tspan x="0" y="0">SK</tspan></text><text class="cls-13" transform="translate(177.07 14.52) rotate(17.74) scale(1.05 1) skewX(-.83)"><tspan x="0" y="0">A</tspan></text><text class="cls-7" transform="translate(184.91 17.03) rotate(17.74) scale(1.05 1) skewX(-.83)"><tspan x="0" y="0">TE</tspan></text></g><g class="cls-14" transform="matrix(-1.02, -0.28, 0.28, -0.96, 220.89, 43.16)"><text class="cls-10" transform="translate(220.83 43.19) rotate(-164.65) scale(1.06 1) skewX(-.86)"><tspan x="0" y="0">SK</tspan></text><text class="cls-6" transform="translate(203.29 38.38) rotate(-164.65) scale(1.06 1) skewX(-.86)"><tspan x="0" y="0">A</tspan></text><text class="cls-10" transform="translate(195.29 36.18) rotate(-164.65) scale(1.06 1) skewX(-.86)"><tspan x="0" y="0">TE</tspan></text></g></g></g><path class="cls-19" d="M1.82,214.8s-.39,8.95,2,11.22c2.39,2.27,22.69,10.74,87.36,8.47,64.67-2.27,160.24,2,181.72,1.7s84-4.52,123.32-13.85,40.32-20.31,40.56-22.31-1.49-27.13-1.49-27.13c0,0,0,16.4-58.84,24.31s-63.51-1.43-70.71,11.57-7,16.67-7,16.67c0,0-157.34-2.26-199.33-2.26S.61,225.54,1.82,214.8Z"/></svg>