<?xml version="1.0" encoding="UTF-8" standalone="no"?>
<svg
   class="waves"
   viewBox="0 24 150 28"
   preserveAspectRatio="none"
   shape-rendering="auto"
   version="1.1"
   id="svg648"
   sodipodi:docname="waves.svg"
   inkscape:version="1.2.2 (732a01da63, 2022-12-09)"
   xmlns:inkscape="http://www.inkscape.org/namespaces/inkscape"
   xmlns:sodipodi="http://sodipodi.sourceforge.net/DTD/sodipodi-0.dtd"
   xmlns="http://www.w3.org/2000/svg"
   xmlns:svg="http://www.w3.org/2000/svg">
  <sodipodi:namedview
     id="namedview650"
     pagecolor="#ffffff"
     bordercolor="#000000"
     borderopacity="0.25"
     inkscape:showpageshadow="2"
     inkscape:pageopacity="0.0"
     inkscape:pagecheckerboard="0"
     inkscape:deskcolor="#d1d1d1"
     showgrid="false"
     inkscape:zoom="7.74"
     inkscape:cx="85.465116"
     inkscape:cy="15.503876"
     inkscape:window-width="1215"
     inkscape:window-height="439"
     inkscape:window-x="63"
     inkscape:window-y="73"
     inkscape:window-maximized="0"
     inkscape:current-layer="svg648" />
  <defs
     id="defs636">
    <path
       id="gentle-wave"
       d="M-160 44c30 0 58-18 88-18s 58 18 88 18 58-18 88-18 58 18 88 18 v44h-352z" />
  </defs>
  <g
     class="parallax"
     id="g646">
    <path
       id="use638"
       d="m -120,44 c 30,0 58,-18 88,-18 30,0 58,18 88,18 30,0 58,-18 88,-18 30,0 58,18 88,18 v 44 h -352 z"
       style="fill:#35595b" />
    <path
       id="use640"
       d="m -127,47 c 30,0 58,-18 88,-18 30,0 58,18 88,18 30,0 58,-18 88,-18 30,0 58,18 88,18 v 44 h -352 z"
       style="fill:#6fb3b8" />
    <path
       id="use642"
       d="m -121,49 c 30,0 58,-18 88,-18 30,0 58,18 88,18 30,0 58,-18 88,-18 30,0 58,18 88,18 v 44 h -352 z"
       style="fill:#c2edce" />
    <path
       id="use644"
       d="m -120,51 c 30,0 58,-18 88,-18 30,0 58,18 88,18 30,0 58,-18 88,-18 30,0 58,18 88,18 v 44 h -352 z"
       style="fill:#f6f6f2" />
  </g>
</svg>
